<mxfile host="Electron" modified="2024-05-26T09:05:10.778Z" agent="Mozilla/5.0 (Windows NT 10.0; Win64; x64) AppleWebKit/537.36 (KHTML, like Gecko) draw.io/21.5.1 Chrome/112.0.5615.204 Electron/24.6.0 Safari/537.36" etag="FXzvSM1Guy-0GJRNmsbB" version="21.5.1" type="device">
  <diagram name="第 1 页" id="7XwQ30b4pdLm3jy8oNzv">
    <mxGraphModel dx="606" dy="809" grid="1" gridSize="10" guides="1" tooltips="1" connect="1" arrows="1" fold="1" page="1" pageScale="1" pageWidth="827" pageHeight="1169" math="0" shadow="0">
      <root>
        <mxCell id="0" />
        <mxCell id="1" parent="0" />
        <mxCell id="RoJu_72wNPQ0F5AxCqPJ-10" style="edgeStyle=orthogonalEdgeStyle;rounded=0;orthogonalLoop=1;jettySize=auto;html=1;exitX=0.5;exitY=0;exitDx=0;exitDy=0;" parent="1" source="RoJu_72wNPQ0F5AxCqPJ-1" target="RoJu_72wNPQ0F5AxCqPJ-6" edge="1">
          <mxGeometry relative="1" as="geometry" />
        </mxCell>
        <mxCell id="RoJu_72wNPQ0F5AxCqPJ-11" style="edgeStyle=orthogonalEdgeStyle;rounded=0;orthogonalLoop=1;jettySize=auto;html=1;exitX=0;exitY=0;exitDx=0;exitDy=0;entryX=0.5;entryY=1;entryDx=0;entryDy=0;" parent="1" source="RoJu_72wNPQ0F5AxCqPJ-1" target="RoJu_72wNPQ0F5AxCqPJ-5" edge="1">
          <mxGeometry relative="1" as="geometry" />
        </mxCell>
        <mxCell id="RoJu_72wNPQ0F5AxCqPJ-12" style="edgeStyle=orthogonalEdgeStyle;rounded=0;orthogonalLoop=1;jettySize=auto;html=1;exitX=1;exitY=0;exitDx=0;exitDy=0;entryX=0.5;entryY=1;entryDx=0;entryDy=0;" parent="1" source="RoJu_72wNPQ0F5AxCqPJ-1" target="RoJu_72wNPQ0F5AxCqPJ-7" edge="1">
          <mxGeometry relative="1" as="geometry" />
        </mxCell>
        <mxCell id="RoJu_72wNPQ0F5AxCqPJ-20" value="" style="edgeStyle=orthogonalEdgeStyle;rounded=0;orthogonalLoop=1;jettySize=auto;html=1;entryX=0.5;entryY=0;entryDx=0;entryDy=0;" parent="1" source="RoJu_72wNPQ0F5AxCqPJ-1" target="RoJu_72wNPQ0F5AxCqPJ-13" edge="1">
          <mxGeometry relative="1" as="geometry" />
        </mxCell>
        <mxCell id="RoJu_72wNPQ0F5AxCqPJ-1" value="&lt;font style=&quot;font-size: 24px;&quot;&gt;data class&lt;br&gt;Clothing&lt;/font&gt;" style="rounded=1;whiteSpace=wrap;html=1;fillColor=#FF9999;" parent="1" vertex="1">
          <mxGeometry x="320" y="300" width="120" height="60" as="geometry" />
        </mxCell>
        <mxCell id="RoJu_72wNPQ0F5AxCqPJ-2" value="&lt;font style=&quot;font-size: 18px;&quot;&gt;id&lt;/font&gt;" style="rounded=0;whiteSpace=wrap;html=1;fillColor=#CCFFFF;" parent="1" vertex="1">
          <mxGeometry x="240" y="160" width="80" height="40" as="geometry" />
        </mxCell>
        <mxCell id="RoJu_72wNPQ0F5AxCqPJ-3" value="&lt;span style=&quot;font-size: 18px;&quot;&gt;image&lt;/span&gt;" style="rounded=0;whiteSpace=wrap;html=1;fillColor=#CCFFFF;" parent="1" vertex="1">
          <mxGeometry x="340" y="140" width="80" height="40" as="geometry" />
        </mxCell>
        <mxCell id="RoJu_72wNPQ0F5AxCqPJ-4" value="&lt;font style=&quot;font-size: 18px;&quot;&gt;warmth&lt;/font&gt;" style="rounded=0;whiteSpace=wrap;html=1;fillColor=#CCFFFF;" parent="1" vertex="1">
          <mxGeometry x="440" y="160" width="80" height="40" as="geometry" />
        </mxCell>
        <mxCell id="RoJu_72wNPQ0F5AxCqPJ-5" value="&lt;font style=&quot;font-size: 18px;&quot;&gt;type&lt;/font&gt;" style="rounded=0;whiteSpace=wrap;html=1;fillColor=#CCFFFF;" parent="1" vertex="1">
          <mxGeometry x="240" y="220" width="80" height="40" as="geometry" />
        </mxCell>
        <mxCell id="RoJu_72wNPQ0F5AxCqPJ-6" value="&lt;font style=&quot;font-size: 18px;&quot;&gt;date&lt;/font&gt;" style="rounded=0;whiteSpace=wrap;html=1;fillColor=#CCFFFF;" parent="1" vertex="1">
          <mxGeometry x="340" y="240" width="80" height="40" as="geometry" />
        </mxCell>
        <mxCell id="RoJu_72wNPQ0F5AxCqPJ-7" value="&lt;font style=&quot;font-size: 18px;&quot;&gt;color&lt;/font&gt;" style="rounded=0;whiteSpace=wrap;html=1;fillColor=#CCFFFF;" parent="1" vertex="1">
          <mxGeometry x="440" y="220" width="80" height="40" as="geometry" />
        </mxCell>
        <mxCell id="RoJu_72wNPQ0F5AxCqPJ-8" value="&lt;font style=&quot;font-size: 18px;&quot;&gt;points&lt;/font&gt;" style="rounded=0;whiteSpace=wrap;html=1;fillColor=#CCFFFF;" parent="1" vertex="1">
          <mxGeometry x="340" y="190" width="80" height="40" as="geometry" />
        </mxCell>
        <mxCell id="RoJu_72wNPQ0F5AxCqPJ-21" style="edgeStyle=orthogonalEdgeStyle;rounded=0;orthogonalLoop=1;jettySize=auto;html=1;exitX=0;exitY=0.5;exitDx=0;exitDy=0;entryX=1;entryY=0.5;entryDx=0;entryDy=0;" parent="1" source="RoJu_72wNPQ0F5AxCqPJ-13" target="RoJu_72wNPQ0F5AxCqPJ-14" edge="1">
          <mxGeometry relative="1" as="geometry" />
        </mxCell>
        <mxCell id="RoJu_72wNPQ0F5AxCqPJ-24" style="edgeStyle=orthogonalEdgeStyle;rounded=0;orthogonalLoop=1;jettySize=auto;html=1;entryX=0.5;entryY=0;entryDx=0;entryDy=0;" parent="1" source="RoJu_72wNPQ0F5AxCqPJ-13" target="RoJu_72wNPQ0F5AxCqPJ-15" edge="1">
          <mxGeometry relative="1" as="geometry" />
        </mxCell>
        <mxCell id="RoJu_72wNPQ0F5AxCqPJ-13" value="&lt;font style=&quot;font-size: 18px;&quot;&gt;ClothingDao&lt;/font&gt;" style="rounded=1;whiteSpace=wrap;html=1;fillColor=#99FF99;" parent="1" vertex="1">
          <mxGeometry x="320" y="390" width="120" height="60" as="geometry" />
        </mxCell>
        <mxCell id="RoJu_72wNPQ0F5AxCqPJ-22" style="edgeStyle=orthogonalEdgeStyle;rounded=0;orthogonalLoop=1;jettySize=auto;html=1;exitX=0.5;exitY=1;exitDx=0;exitDy=0;entryX=0.5;entryY=0;entryDx=0;entryDy=0;" parent="1" source="RoJu_72wNPQ0F5AxCqPJ-14" target="RoJu_72wNPQ0F5AxCqPJ-18" edge="1">
          <mxGeometry relative="1" as="geometry" />
        </mxCell>
        <mxCell id="RoJu_72wNPQ0F5AxCqPJ-14" value="&lt;font style=&quot;font-size: 18px;&quot;&gt;Database&lt;br&gt;Module&lt;/font&gt;" style="rhombus;whiteSpace=wrap;html=1;fillColor=#9999FF;" parent="1" vertex="1">
          <mxGeometry x="120" y="380" width="160" height="80" as="geometry" />
        </mxCell>
        <mxCell id="RoJu_72wNPQ0F5AxCqPJ-25" style="edgeStyle=orthogonalEdgeStyle;rounded=0;orthogonalLoop=1;jettySize=auto;html=1;exitX=1;exitY=0.5;exitDx=0;exitDy=0;entryX=0;entryY=0.5;entryDx=0;entryDy=0;" parent="1" source="RoJu_72wNPQ0F5AxCqPJ-15" target="RoJu_72wNPQ0F5AxCqPJ-16" edge="1">
          <mxGeometry relative="1" as="geometry" />
        </mxCell>
        <mxCell id="RoJu_72wNPQ0F5AxCqPJ-15" value="&lt;font style=&quot;font-size: 18px;&quot;&gt;Closet&lt;br&gt;Repository&lt;br&gt;Impl&lt;/font&gt;" style="rounded=0;whiteSpace=wrap;html=1;fillColor=#FFCC99;" parent="1" vertex="1">
          <mxGeometry x="315" y="495" width="130" height="70" as="geometry" />
        </mxCell>
        <mxCell id="RoJu_72wNPQ0F5AxCqPJ-26" style="edgeStyle=orthogonalEdgeStyle;rounded=0;orthogonalLoop=1;jettySize=auto;html=1;entryX=0.5;entryY=1;entryDx=0;entryDy=0;" parent="1" source="RoJu_72wNPQ0F5AxCqPJ-16" target="RoJu_72wNPQ0F5AxCqPJ-23" edge="1">
          <mxGeometry relative="1" as="geometry" />
        </mxCell>
        <mxCell id="RoJu_72wNPQ0F5AxCqPJ-16" value="&lt;font style=&quot;font-size: 18px;&quot;&gt;Repository&lt;br&gt;Module&lt;/font&gt;" style="rhombus;whiteSpace=wrap;html=1;fillColor=#9999FF;" parent="1" vertex="1">
          <mxGeometry x="480" y="490" width="160" height="80" as="geometry" />
        </mxCell>
        <mxCell id="RoJu_72wNPQ0F5AxCqPJ-18" value="&lt;font style=&quot;font-size: 18px;&quot;&gt;Clothing&lt;br&gt;Databse&lt;/font&gt;" style="ellipse;whiteSpace=wrap;html=1;fillColor=#CCFFE6;" parent="1" vertex="1">
          <mxGeometry x="140" y="490" width="120" height="80" as="geometry" />
        </mxCell>
        <mxCell id="RoJu_72wNPQ0F5AxCqPJ-23" value="&lt;font style=&quot;font-size: 18px;&quot;&gt;Clothing&lt;br&gt;Repository&lt;/font&gt;" style="ellipse;whiteSpace=wrap;html=1;fillColor=#CCFFE6;" parent="1" vertex="1">
          <mxGeometry x="500" y="380" width="120" height="80" as="geometry" />
        </mxCell>
      </root>
    </mxGraphModel>
  </diagram>
</mxfile>
